<svg xmlns="http://www.w3.org/2000/svg" viewBox="-40 0 940 580" font-family="-apple-system,'PingFang SC',sans-serif">
<title>上证综指 2026-09-25 预判图</title>
<desc>pred=2026-09-24-close / date=2026-09-25 / actual=2026-09-24</desc>
<defs><style>
.grid{stroke:#d8d2c4;stroke-width:0.5;stroke-dasharray:2 3}
.axis{stroke:#3a4a4a;stroke-width:1;fill:none}
.label{fill:#3a4a4a;font-size:10px}
.actual{stroke:#1f3a3a;stroke-width:2.2;fill:none}
.node-up{fill:#fdf0ec;stroke:#b33a1f;stroke-width:2}
.node-dn{fill:#edf5ee;stroke:#1a7a3a;stroke-width:2}
.tt{font-size:11px;font-weight:700}
.tb{font-size:10px}
.ts{font-size:9px}
</style></defs>
<text x="430" y="18" text-anchor="middle" class="tt" fill="#1f3a3a" font-size="15">上证综指 2026-09-25 预判 · 震荡区间 + 变盘路径图（v5）</text>
<line class="grid" x1="20" y1="434.7" x2="600" y2="434.7"/>
<text class="label" x="14" y="437.7" text-anchor="end">3820</text>
<line class="grid" x1="20" y1="382.2" x2="600" y2="382.2"/>
<text class="label" x="14" y="385.2" text-anchor="end">3840</text>
<line class="grid" x1="20" y1="329.8" x2="600" y2="329.8"/>
<text class="label" x="14" y="332.8" text-anchor="end">3860</text>
<line class="grid" x1="20" y1="277.3" x2="600" y2="277.3"/>
<text class="label" x="14" y="280.3" text-anchor="end">3880</text>
<line class="grid" x1="20" y1="224.9" x2="600" y2="224.9"/>
<text class="label" x="14" y="227.9" text-anchor="end">3900</text>
<line class="grid" x1="20" y1="172.4" x2="600" y2="172.4"/>
<text class="label" x="14" y="175.4" text-anchor="end">3920</text>
<line class="grid" x1="20" y1="120.0" x2="600" y2="120.0"/>
<text class="label" x="14" y="123.0" text-anchor="end">3940</text>
<line class="grid" x1="20" y1="67.5" x2="600" y2="67.5"/>
<text class="label" x="14" y="70.5" text-anchor="end">3960</text>
<line class="axis" x1="20" y1="40" x2="20" y2="480"/>
<line class="grid" x1="240" y1="40" x2="240" y2="480" stroke="#a89e87" stroke-dasharray="3 4"/>
<text x="130" y="500" text-anchor="middle" class="label">当日实况</text>
<text x="420" y="500" text-anchor="middle" class="label">震荡区间 · 变盘路径</text>
<path class="actual" d="M 20.0,158.5 L 100.0,144.9 L 170.0,255.4 L 240.0,255.4"/>
<circle cx="20" cy="158.5" r="3" fill="#1f3a3a"/>
<text class="ts" x="18" y="172.5" text-anchor="end" fill="#1a5a3a">O 3925.32</text>
<circle cx="100" cy="144.9" r="3" fill="#b33a1f"/>
<text class="ts" x="104" y="140.9" fill="#b33a1f">H 3930.50</text>
<circle cx="170" cy="255.4" r="3" fill="#1a7a3a"/>
<text class="ts" x="174" y="269.4" fill="#1a7a3a">L 3888.37</text>
<circle cx="240" cy="255.4" r="3" fill="#1f3a3a"/>
<text class="ts" x="228" y="247.4" text-anchor="end" fill="#1f3a3a">C 3888.37</text>
<text class="tb" x="100" y="128.9" fill="#b33a1f">⚠ 假突破 3884 失败</text>
<text x="22" y="48.0" class="tb" fill="#b33a1f">▸ 当日关键信号</text>
<text x="24" y="63.0" class="ts" fill="#5a5a4f">· v5 总分 -3（买卖点 -1 + DRAGON BALL -1 + BOLL 0 + MACD DIF 拐头 -1）——近 5 期首个强偏空</text>
<text x="24" y="78.0" class="ts" fill="#5a5a4f">· 全部 6 个级别（5F/15F/30F/60F/120F/日线）DIF 同日转向向下，日线与 5F 死叉成立（本根）</text>
<text x="24" y="93.0" class="ts" fill="#5a5a4f">· 日/60F/15F/120F 四周期全部「有效破 55 线」，55 线极强传递性全链 false</text>
<rect x="240" y="265.7" width="360" height="64.2" fill="#f3eddd" opacity="0.55"/>
<text class="ts" x="592" y="297.8" text-anchor="end" fill="#8a7a55">震荡带 3860–3884</text>
<circle cx="240" cy="255.4" r="4.5" fill="#2b2b2b"/>
<text class="tb" x="234" y="247.4" text-anchor="end" fill="#2b2b2b">现价 3888.37</text>
<path d="M 240.0,255.4 L 320.0,245.8 L 400.0,265.0 L 480.0,249.6 L 600.0,255.4" stroke="#8a8a80" stroke-width="2.2" fill="none" stroke-dasharray="4 3"/>
<text class="tb" x="330" y="259.8" fill="#6a6a5f">区间震荡（37%）</text>
<polygon class="node-up" points="420.0,254.69078555250883 431.0,265.6907855525088 420.0,276.6907855525088 409.0,265.6907855525088"/>
<path d="M 420.0,265.7 L 510.0,239.6 L 600.0,213.5" stroke="#b33a1f" stroke-width="2.1" fill="none"/>
<polygon points="600,205.5 608,213.5 600,221.5 592,213.5" fill="#b33a1f"/>
<text class="tb" x="436.0" y="259.7" fill="#b33a1f">突破 3884（28%）</text>
<text class="ts" x="490" y="237.0" fill="#b33a1f">放量站稳 → 看 3904 日线 MA55·新晋第一反压（放量+收盘站稳 → 升级）</text>
<polygon class="node-dn" points="420.0,318.91536535939935 431.0,329.91536535939935 420.0,340.91536535939935 409.0,329.91536535939935"/>
<path d="M 420.0,329.9 L 510.0,352.5 L 600.0,375.1" stroke="#1a7a3a" stroke-width="2.2" fill="none"/>
<polygon points="600,367.1 608,375.1 600,383.1 592,375.1" fill="#1a7a3a"/>
<text class="tb" x="436.0" y="343.9" fill="#1a7a3a">跌破 3860（35%）</text>
<text class="ts" x="490" y="358.8" fill="#1a7a3a">缩量跌破 → 看 3843 前低9/16·日线中枢下沿（两重共振）·主支撑·本轮多头结构生死线</text>
<line x1="20" y1="213.5" x2="600" y2="213.5" stroke="#b33a1f" stroke-width="0.7" stroke-dasharray="2 3" opacity="0.75"/>
<text class="ts" x="610" y="216.5" fill="#b33a1f">RESIST 3904.34 日线 MA55·新晋第一反压（放量+收盘站稳 → 升级）</text>
<line x1="20" y1="265.7" x2="600" y2="265.7" stroke="#b33a1f" stroke-width="0.7" stroke-dasharray="2 3" opacity="0.75"/>
<text class="ts" x="610" y="268.7" fill="#b33a1f">RESIST 3884.44 日线中枢上沿·中枢破坏警戒线（跌破不收回 → 剧本 C）</text>
<line x1="20" y1="329.9" x2="600" y2="329.9" stroke="#1a7a3a" stroke-width="0.7" stroke-dasharray="2 3" opacity="0.75"/>
<text class="ts" x="610" y="332.9" fill="#1a7a3a">SUPP 3859.95 日线 BOLL 下轨·引擎C 日线路径企稳位</text>
<line x1="20" y1="375.1" x2="600" y2="375.1" stroke="#1a7a3a" stroke-width="0.7" stroke-dasharray="2 3" opacity="0.75"/>
<g>
<rect x="615" y="385" width="270" height="150" rx="6" fill="#fffdf6" stroke="#a89e87" stroke-width="0.8"/>
<text x="627" y="403" class="tb" fill="#1f3a3a">盘面应对（v5 纪律）</text>
<text x="627" y="423" class="ts" fill="#6a6a5f">震荡：3860–3884 内不追涨杀跌，等变盘</text>
<text x="627" y="441" class="ts" fill="#b33a1f">突破：放量站稳 3884 → 追多，看 3904</text>
<text x="627" y="459" class="ts" fill="#1a7a3a">跌破：跌破 3860 → 减仓，看 3843</text>
<text x="627" y="477" class="ts" fill="#5a5a4f">信号：v5 总分 -3（买卖点 -1 + DRAGON BALL -1 + BOLL…</text>
<text x="627" y="491" class="ts" fill="#5a5a4f">信号：全部 6 个级别（5F/15F/30F/60F/120F/日线）DIF …</text>
<text x="627" y="505" class="ts" fill="#5a5a4f">信号：日/60F/15F/120F 四周期全部「有效破 55 线」，55…</text>
<text x="627" y="523" class="ts" fill="#5a5a4f">概率：突破28% / 震荡37% / 跌破35%</text>
</g>
<g>
<rect x="20" y="545" width="580" height="26" rx="4" fill="#fffdf6" stroke="#a89e87" stroke-width="0.6"/>
<line x1="30" y1="558" x2="52" y2="558" stroke="#1f3a3a" stroke-width="2"/>
<text x="56" y="562" class="ts" fill="#1f3a3a">当日实况</text>
<line x1="130" y1="558" x2="152" y2="558" stroke="#8a8a80" stroke-width="2.5" stroke-dasharray="4 3"/>
<text x="156" y="562" class="ts" fill="#5a5a4f">震荡（常态）</text>
<line x1="250" y1="558" x2="272" y2="558" stroke="#b33a1f" stroke-width="3"/>
<text x="276" y="562" class="ts" fill="#b33a1f">突破（线宽=概率）</text>
<line x1="380" y1="558" x2="402" y2="558" stroke="#1a7a3a" stroke-width="3"/>
<text x="406" y="562" class="ts" fill="#1a7a3a">跌破（线宽=概率）</text>
<line x1="495" y1="558" x2="517" y2="558" stroke="#7a7a7a" stroke-width="1" stroke-dasharray="2 3"/>
<text x="521" y="562" class="ts" fill="#5a5a4f">关键位</text>
</g>
</svg>