<svg xmlns="http://www.w3.org/2000/svg" viewBox="0 0 900 580" font-family="-apple-system,'PingFang SC',sans-serif">
<defs><style>
.grid{stroke:#d8d2c4;stroke-width:0.5;stroke-dasharray:2 3}
.axis{stroke:#3a4a4a;stroke-width:1;fill:none}
.label{fill:#3a4a4a;font-size:10px}
.actual{stroke:#1f3a3a;stroke-width:2.2;fill:none}
.main-path{stroke:#2b2b2b;stroke-width:2;fill:none;stroke-dasharray:1 0}
.branch-a{stroke:#b33a1f;stroke-width:2.2;fill:none}
.branch-b{stroke:#1a7a3a;stroke-width:2.2;fill:none}
.node{fill:#f6f2e9;stroke:#b33a1f;stroke-width:2}
.tt{font-size:11px;font-weight:700}
.tb{font-size:10px}
.ts{font-size:9px}
</style></defs>
<text x="450" y="18" text-anchor="middle" class="tt" fill="#1f3a3a" font-size="15">上证综指 2026-08-28 预判 · 条件触发决策路径图（v5）</text>
<line class="grid" x1="20" y1="457.0" x2="600" y2="457.0"/>
<text class="label" x="14" y="460.0" text-anchor="end">3880</text>
<line class="grid" x1="20" y1="414.1" x2="600" y2="414.1"/>
<text class="label" x="14" y="417.1" text-anchor="end">3900</text>
<line class="grid" x1="20" y1="371.1" x2="600" y2="371.1"/>
<text class="label" x="14" y="374.1" text-anchor="end">3920</text>
<line class="grid" x1="20" y1="328.1" x2="600" y2="328.1"/>
<text class="label" x="14" y="331.1" text-anchor="end">3940</text>
<line class="grid" x1="20" y1="285.1" x2="600" y2="285.1"/>
<text class="label" x="14" y="288.1" text-anchor="end">3960</text>
<line class="grid" x1="20" y1="242.2" x2="600" y2="242.2"/>
<text class="label" x="14" y="245.2" text-anchor="end">3980</text>
<line class="grid" x1="20" y1="199.2" x2="600" y2="199.2"/>
<text class="label" x="14" y="202.2" text-anchor="end">4000</text>
<line class="grid" x1="20" y1="156.2" x2="600" y2="156.2"/>
<text class="label" x="14" y="159.2" text-anchor="end">4020</text>
<line class="grid" x1="20" y1="113.2" x2="600" y2="113.2"/>
<text class="label" x="14" y="116.2" text-anchor="end">4040</text>
<line class="grid" x1="20" y1="70.3" x2="600" y2="70.3"/>
<text class="label" x="14" y="73.3" text-anchor="end">4060</text>
<line class="axis" x1="20" y1="40" x2="20" y2="480"/>
<line class="grid" x1="240" y1="40" x2="240" y2="480" stroke="#a89e87" stroke-dasharray="3 4"/>
<text x="130" y="500" text-anchor="middle" class="label">前日已走</text>
<text x="420" y="500" text-anchor="middle" class="label">当日决策路径</text>
<path class="actual" d="M 20.0,388.5 L 86.0,289.4 L 130.0,290.9 L 175.0,292.5 L 240.0,292.5"/>
<circle cx="20" cy="388.5" r="3" fill="#1f3a3a"/>
<text class="ts" x="18" y="402.5" text-anchor="end" fill="#1a5a3a">O 3911.89</text>
<circle cx="86" cy="289.4" r="3" fill="#b33a1f"/>
<text class="ts" x="90" y="285.4" fill="#b33a1f">H 3958.03</text>
<circle cx="240" cy="274.6" r="4.5" fill="#2b2b2b"/>
<text class="tb" x="234" y="266.6" text-anchor="end" fill="#2b2b2b">现价 3964.92</text>
<path class="main-path" d="M 240.0,274.6 L 400.0,266.9"/>
<text class="ts" x="385" y="264.7" text-anchor="end" fill="#5a5a4f">主路径：上攻 周线一卖</text>
<polygon class="node" points="400.0,255.90823851150049 411.0,266.9082385115005 400.0,277.9082385115005 389.0,266.9082385115005"/>
<text class="tb" x="416.0" y="262.9" fill="#b33a1f">决策位 周线一卖 3968.48</text>
<path class="branch-a" d="M 400.0,266.9 L 465.0,207.7 L 530.0,155.7 L 600.0,126.0"/>
<polygon points="600,118.0 608,126.0 600,134.0 592,126.0" fill="#b33a1f"/>
<text class="tb" x="470" y="179.4" fill="#b33a1f">A 放量突破</text>
<text class="ts" x="470" y="191.4" fill="#b33a1f">触发：放量站稳 3968</text>
<text class="ts" x="470" y="202.4" fill="#b33a1f">应对：追多·持股</text>
<text class="ts" x="598" y="112.0" text-anchor="end" fill="#b33a1f">目标 4034.08 周线中枢上沿</text>
<path class="branch-b" d="M 400.0,266.9 L 455.0,310.6 L 510.0,354.2 L 545.0,373.6 L 600.0,393.0"/>
<polygon points="600,385.0 608,393.0 600,401.0 592,393.0" fill="#1a7a3a"/>
<text class="tb" x="448" y="293.5" fill="#1a7a3a">B 缩量假突破·诱多</text>
<text class="ts" x="448" y="305.5" fill="#1a7a3a">触发：缩量遇阻回落</text>
<text class="ts" x="448" y="316.5" fill="#1a7a3a">应对：逢高减仓·不追涨</text>
<text class="ts" x="448" y="327.5" fill="#1a7a3a">跌破 3928 看 3910</text>
<text class="ts" x="598" y="415.0" text-anchor="end" fill="#1a7a3a">目标 3909.79 15F三买</text>
<line x1="20" y1="126.0" x2="600" y2="126.0" stroke="#b33a1f" stroke-width="0.7" stroke-dasharray="2 3" opacity="0.75"/>
<text class="ts" x="610" y="129.0" fill="#b33a1f">RESIST 4034.08 周线中枢上沿</text>
<line x1="20" y1="266.9" x2="600" y2="266.9" stroke="#b33a1f" stroke-width="0.7" stroke-dasharray="2 3" opacity="0.75"/>
<text class="ts" x="610" y="269.9" fill="#b33a1f">RESIST 3968.48 周线一卖（决策位）</text>
<line x1="20" y1="354.2" x2="600" y2="354.2" stroke="#1a7a3a" stroke-width="0.7" stroke-dasharray="2 3" opacity="0.75"/>
<text class="ts" x="610" y="357.2" fill="#1a7a3a">SUPP 3927.85 三共振</text>
<line x1="20" y1="393.0" x2="600" y2="393.0" stroke="#1a7a3a" stroke-width="0.7" stroke-dasharray="2 3" opacity="0.75"/>
<g>
<rect x="615" y="385" width="270" height="150" rx="6" fill="#fffdf6" stroke="#a89e87" stroke-width="0.8"/>
<text x="627" y="403" class="tb" fill="#1f3a3a">盘面应对（逆势反抽纪律）</text>
<text x="627" y="423" class="ts" fill="#b33a1f">A 放量站稳 3968 → 60F 极强延续</text>
<text x="627" y="437" class="ts" fill="#b33a1f">   追多/持股，目标 4034 周线中枢上沿</text>
<text x="627" y="455" class="ts" fill="#1a7a3a">B 缩量遇阻 3968 → 假突破回落</text>
<text x="627" y="469" class="ts" fill="#1a7a3a">   逢高减仓不追涨，回踩 3928 三共振</text>
<text x="627" y="483" class="ts" fill="#1a7a3a">   跌破看 3910 15F三买</text>
<text x="627" y="501" class="ts" fill="#5a5a4f">周线一卖 3968 附近不追高；</text>
<text x="627" y="515" class="ts" fill="#5a5a4f">只有放量站稳 3968 + 周线 trend</text>
<text x="627" y="529" class="ts" fill="#5a5a4f">持续向上才确认看 4034。</text>
</g>
<g>
<rect x="20" y="545" width="580" height="26" rx="4" fill="#fffdf6" stroke="#a89e87" stroke-width="0.6"/>
<line x1="30" y1="558" x2="52" y2="558" stroke="#1f3a3a" stroke-width="2"/>
<text x="56" y="562" class="ts" fill="#1f3a3a">前日已走</text>
<polygon points="105,551 115,558 105,565 95,558" fill="#f6f2e9" stroke="#b33a1f" stroke-width="1.5"/>
<text x="120" y="562" class="ts" fill="#1f3a3a">决策点</text>
<line x1="175" y1="558" x2="197" y2="558" stroke="#b33a1f" stroke-width="2"/>
<text x="201" y="562" class="ts" fill="#b33a1f">A 放量突破（追多）</text>
<line x1="330" y1="558" x2="352" y2="558" stroke="#1a7a3a" stroke-width="2"/>
<text x="356" y="562" class="ts" fill="#1a7a3a">B 缩量假突破（减仓）</text>
<line x1="490" y1="558" x2="512" y2="558" stroke="#7a7a7a" stroke-width="1" stroke-dasharray="2 3"/>
<text x="516" y="562" class="ts" fill="#5a5a4f">关键位</text>
</g>
</svg>