<svg xmlns="http://www.w3.org/2000/svg" viewBox="0 0 900 580" font-family="-apple-system,'PingFang SC',sans-serif">
<defs><style>
.grid{stroke:#d8d2c4;stroke-width:0.5;stroke-dasharray:2 3}
.axis{stroke:#3a4a4a;stroke-width:1;fill:none}
.label{fill:#3a4a4a;font-size:10px}
.actual{stroke:#1f3a3a;stroke-width:2.2;fill:none}
.node-up{fill:#fdf0ec;stroke:#b33a1f;stroke-width:2}
.node-dn{fill:#edf5ee;stroke:#1a7a3a;stroke-width:2}
.tt{font-size:11px;font-weight:700}
.tb{font-size:10px}
.ts{font-size:9px}
</style></defs>
<text x="450" y="18" text-anchor="middle" class="tt" fill="#1f3a3a" font-size="15">上证综指 2026-09-01 预判 · 震荡区间 + 变盘路径图（v5）</text>
<line class="grid" x1="20" y1="448.3" x2="600" y2="448.3"/>
<text class="label" x="14" y="451.3" text-anchor="end">3900</text>
<line class="grid" x1="20" y1="401.4" x2="600" y2="401.4"/>
<text class="label" x="14" y="404.4" text-anchor="end">3920</text>
<line class="grid" x1="20" y1="354.5" x2="600" y2="354.5"/>
<text class="label" x="14" y="357.5" text-anchor="end">3940</text>
<line class="grid" x1="20" y1="307.6" x2="600" y2="307.6"/>
<text class="label" x="14" y="310.6" text-anchor="end">3960</text>
<line class="grid" x1="20" y1="260.7" x2="600" y2="260.7"/>
<text class="label" x="14" y="263.7" text-anchor="end">3980</text>
<line class="grid" x1="20" y1="213.8" x2="600" y2="213.8"/>
<text class="label" x="14" y="216.8" text-anchor="end">4000</text>
<line class="grid" x1="20" y1="166.9" x2="600" y2="166.9"/>
<text class="label" x="14" y="169.9" text-anchor="end">4020</text>
<line class="grid" x1="20" y1="119.9" x2="600" y2="119.9"/>
<text class="label" x="14" y="122.9" text-anchor="end">4040</text>
<line class="grid" x1="20" y1="73.0" x2="600" y2="73.0"/>
<text class="label" x="14" y="76.0" text-anchor="end">4060</text>
<line class="axis" x1="20" y1="40" x2="20" y2="480"/>
<line class="grid" x1="240" y1="40" x2="240" y2="480" stroke="#a89e87" stroke-dasharray="3 4"/>
<text x="130" y="500" text-anchor="middle" class="label">当日实况</text>
<text x="420" y="500" text-anchor="middle" class="label">震荡区间 · 变盘路径</text>
<path class="actual" d="M 20.0,386.1 L 100.0,386.2 L 170.0,245.9 L 240.0,245.9"/>
<circle cx="20" cy="386.1" r="3" fill="#1f3a3a"/>
<text class="ts" x="18" y="400.1" text-anchor="end" fill="#1a5a3a">O 3926.53</text>
<circle cx="170" cy="245.9" r="3" fill="#b33a1f"/>
<text class="ts" x="174" y="241.9" fill="#b33a1f">H 3986.30</text>
<circle cx="100" cy="386.2" r="3" fill="#1a7a3a"/>
<text class="ts" x="104" y="400.2" fill="#1a7a3a">L 3926.50</text>
<circle cx="240" cy="245.9" r="3" fill="#1f3a3a"/>
<text class="ts" x="228" y="237.9" text-anchor="end" fill="#1f3a3a">C 3986.30</text>
<text x="22" y="48.0" class="tb" fill="#b33a1f">▸ 当日关键信号</text>
<text x="24" y="63.0" class="ts" fill="#5a5a4f">· T&J：4012 突破必须强势</text>
<text x="24" y="78.0" class="ts" fill="#5a5a4f">· 日线极强将度过·做多真空</text>
<text x="24" y="93.0" class="ts" fill="#5a5a4f">· 分水岭 60F55 得失</text>
<rect x="240" y="185.6" width="360" height="190.0" fill="#f3eddd" opacity="0.55"/>
<text class="ts" x="592" y="280.6" text-anchor="end" fill="#8a7a55">震荡带 3931–4012</text>
<circle cx="240" cy="245.9" r="4.5" fill="#2b2b2b"/>
<text class="tb" x="234" y="237.9" text-anchor="end" fill="#2b2b2b">现价 3986.30</text>
<path d="M 240.0,245.9 L 320.0,227.1 L 400.0,264.7 L 480.0,234.6 L 600.0,245.9" stroke="#8a8a80" stroke-width="2.3" fill="none" stroke-dasharray="4 3"/>
<text class="tb" x="330" y="241.1" fill="#6a6a5f">区间震荡（40%）</text>
<polygon class="node-up" points="420.0,174.61893592067372 431.0,185.61893592067372 420.0,196.61893592067372 409.0,185.61893592067372"/>
<path d="M 420.0,185.6 L 510.0,159.7 L 600.0,133.8" stroke="#b33a1f" stroke-width="2.1" fill="none"/>
<polygon points="600,125.8 608,133.8 600,141.8 592,133.8" fill="#b33a1f"/>
<text class="tb" x="436.0" y="179.6" fill="#b33a1f">突破 4012（30%）</text>
<text class="ts" x="490" y="157.1" fill="#b33a1f">放量站稳 → 看 4034 周线中枢上沿</text>
<polygon class="node-dn" points="420.0,364.61786970892416 431.0,375.61786970892416 420.0,386.61786970892416 409.0,375.61786970892416"/>
<path d="M 420.0,375.6 L 510.0,379.3 L 600.0,383.0" stroke="#1a7a3a" stroke-width="2.1" fill="none"/>
<polygon points="600,375.0 608,383.0 600,391.0 592,383.0" fill="#1a7a3a"/>
<text class="tb" x="436.0" y="389.6" fill="#1a7a3a">跌破 3931（30%）</text>
<text class="ts" x="490" y="383.7" fill="#1a7a3a">缩量跌破 → 看 3928 周线一买</text>
<line x1="20" y1="133.8" x2="600" y2="133.8" stroke="#b33a1f" stroke-width="0.7" stroke-dasharray="2 3" opacity="0.75"/>
<text class="ts" x="610" y="136.8" fill="#b33a1f">RESIST 4034.08 周线中枢上沿</text>
<line x1="20" y1="185.6" x2="600" y2="185.6" stroke="#b33a1f" stroke-width="0.7" stroke-dasharray="2 3" opacity="0.75"/>
<text class="ts" x="610" y="188.6" fill="#b33a1f">RESIST 4012.00 233日线·压力位</text>
<line x1="20" y1="375.6" x2="600" y2="375.6" stroke="#1a7a3a" stroke-width="0.7" stroke-dasharray="2 3" opacity="0.75"/>
<text class="ts" x="610" y="378.6" fill="#1a7a3a">SUPP 3931.00 60F55·分水岭</text>
<line x1="20" y1="383.0" x2="600" y2="383.0" stroke="#1a7a3a" stroke-width="0.7" stroke-dasharray="2 3" opacity="0.75"/>
<g>
<rect x="615" y="385" width="270" height="150" rx="6" fill="#fffdf6" stroke="#a89e87" stroke-width="0.8"/>
<text x="627" y="403" class="tb" fill="#1f3a3a">盘面应对（v5 纪律）</text>
<text x="627" y="423" class="ts" fill="#6a6a5f">震荡：3931–4012 内不追涨杀跌，等变盘</text>
<text x="627" y="441" class="ts" fill="#b33a1f">突破：放量站稳 4012 → 追多，看 4034</text>
<text x="627" y="459" class="ts" fill="#1a7a3a">跌破：跌破 3931 → 减仓，看 3928</text>
<text x="627" y="477" class="ts" fill="#5a5a4f">信号：T&J：4012 突破必须强势</text>
<text x="627" y="491" class="ts" fill="#5a5a4f">信号：日线极强将度过·做多真空</text>
<text x="627" y="505" class="ts" fill="#5a5a4f">信号：分水岭 60F55 得失</text>
<text x="627" y="523" class="ts" fill="#5a5a4f">概率：突破30% / 震荡40% / 跌破30%</text>
</g>
<g>
<rect x="20" y="545" width="580" height="26" rx="4" fill="#fffdf6" stroke="#a89e87" stroke-width="0.6"/>
<line x1="30" y1="558" x2="52" y2="558" stroke="#1f3a3a" stroke-width="2"/>
<text x="56" y="562" class="ts" fill="#1f3a3a">当日实况</text>
<line x1="130" y1="558" x2="152" y2="558" stroke="#8a8a80" stroke-width="2.5" stroke-dasharray="4 3"/>
<text x="156" y="562" class="ts" fill="#5a5a4f">震荡（常态）</text>
<line x1="250" y1="558" x2="272" y2="558" stroke="#b33a1f" stroke-width="3"/>
<text x="276" y="562" class="ts" fill="#b33a1f">突破（线宽=概率）</text>
<line x1="380" y1="558" x2="402" y2="558" stroke="#1a7a3a" stroke-width="3"/>
<text x="406" y="562" class="ts" fill="#1a7a3a">跌破（线宽=概率）</text>
<line x1="495" y1="558" x2="517" y2="558" stroke="#7a7a7a" stroke-width="1" stroke-dasharray="2 3"/>
<text x="521" y="562" class="ts" fill="#5a5a4f">关键位</text>
</g>
</svg>