<svg xmlns="http://www.w3.org/2000/svg" viewBox="-40 0 940 580" font-family="-apple-system,'PingFang SC',sans-serif">
<defs><style>
.grid{stroke:#d8d2c4;stroke-width:0.5;stroke-dasharray:2 3}
.axis{stroke:#3a4a4a;stroke-width:1;fill:none}
.label{fill:#3a4a4a;font-size:10px}
.actual{stroke:#1f3a3a;stroke-width:2.2;fill:none}
.node-up{fill:#fdf0ec;stroke:#b33a1f;stroke-width:2}
.node-dn{fill:#edf5ee;stroke:#1a7a3a;stroke-width:2}
.tt{font-size:11px;font-weight:700}
.tb{font-size:10px}
.ts{font-size:9px}
</style></defs>
<text x="430" y="18" text-anchor="middle" class="tt" fill="#1f3a3a" font-size="15">上证综指 2026-09-14 预判 · 震荡区间 + 变盘路径图（v5）</text>
<line class="grid" x1="20" y1="464.8" x2="600" y2="464.8"/>
<text class="label" x="14" y="467.8" text-anchor="end">3800</text>
<line class="grid" x1="20" y1="424.4" x2="600" y2="424.4"/>
<text class="label" x="14" y="427.4" text-anchor="end">3820</text>
<line class="grid" x1="20" y1="384.0" x2="600" y2="384.0"/>
<text class="label" x="14" y="387.0" text-anchor="end">3840</text>
<line class="grid" x1="20" y1="343.6" x2="600" y2="343.6"/>
<text class="label" x="14" y="346.6" text-anchor="end">3860</text>
<line class="grid" x1="20" y1="303.2" x2="600" y2="303.2"/>
<text class="label" x="14" y="306.2" text-anchor="end">3880</text>
<line class="grid" x1="20" y1="262.8" x2="600" y2="262.8"/>
<text class="label" x="14" y="265.8" text-anchor="end">3900</text>
<line class="grid" x1="20" y1="222.4" x2="600" y2="222.4"/>
<text class="label" x="14" y="225.4" text-anchor="end">3920</text>
<line class="grid" x1="20" y1="182.0" x2="600" y2="182.0"/>
<text class="label" x="14" y="185.0" text-anchor="end">3940</text>
<line class="grid" x1="20" y1="141.6" x2="600" y2="141.6"/>
<text class="label" x="14" y="144.6" text-anchor="end">3960</text>
<line class="grid" x1="20" y1="101.2" x2="600" y2="101.2"/>
<text class="label" x="14" y="104.2" text-anchor="end">3980</text>
<line class="grid" x1="20" y1="60.8" x2="600" y2="60.8"/>
<text class="label" x="14" y="63.8" text-anchor="end">4000</text>
<line class="axis" x1="20" y1="40" x2="20" y2="480"/>
<line class="grid" x1="240" y1="40" x2="240" y2="480" stroke="#a89e87" stroke-dasharray="3 4"/>
<text x="130" y="500" text-anchor="middle" class="label">当日实况</text>
<text x="420" y="500" text-anchor="middle" class="label">震荡区间 · 变盘路径</text>
<path class="actual" d="M 20.0,161.3 L 100.0,120.8 L 170.0,166.3 L 240.0,157.4"/>
<circle cx="20" cy="161.3" r="3" fill="#1f3a3a"/>
<text class="ts" x="18" y="175.3" text-anchor="end" fill="#1a5a3a">O 3950.24</text>
<circle cx="100" cy="120.8" r="3" fill="#b33a1f"/>
<text class="ts" x="104" y="116.8" fill="#b33a1f">H 3970.31</text>
<circle cx="170" cy="166.3" r="3" fill="#1a7a3a"/>
<text class="ts" x="174" y="180.3" fill="#1a7a3a">L 3947.80</text>
<circle cx="240" cy="157.4" r="3" fill="#1f3a3a"/>
<text class="ts" x="228" y="149.4" text-anchor="end" fill="#1f3a3a">C 3952.18</text>
<text class="tb" x="100" y="104.8" fill="#b33a1f">⚠ 假突破 3923 失败</text>
<text x="22" y="48.0" class="tb" fill="#b33a1f">▸ 当日关键信号</text>
<text x="24" y="63.0" class="ts" fill="#5a5a4f">· T&J：周五有效跌破 60F55 + 3852 无底背离 + 持续阴跌</text>
<text x="24" y="78.0" class="ts" fill="#5a5a4f">· 日线 MACD 正式死叉（DIF 1.68<DEA 5.24）</text>
<text x="24" y="93.0" class="ts" fill="#5a5a4f">· BOLL 日线 81% 看空（开口向下趋势启动）</text>
<rect x="240" y="217.0" width="360" height="142.8" fill="#f3eddd" opacity="0.55"/>
<text class="ts" x="592" y="288.3" text-anchor="end" fill="#8a7a55">震荡带 3852–3923</text>
<circle cx="240" cy="286.8" r="4.5" fill="#2b2b2b"/>
<text class="tb" x="234" y="278.8" text-anchor="end" fill="#2b2b2b">现价 3888.11</text>
<path d="M 240.0,286.8 L 320.0,270.7 L 400.0,303.0 L 480.0,277.1 L 600.0,286.8" stroke="#8a8a80" stroke-width="2.1" fill="none" stroke-dasharray="4 3"/>
<text class="tb" x="330" y="284.7" fill="#6a6a5f">区间震荡（30%）</text>
<polygon class="node-up" points="420.0,205.95344780093626 431.0,216.95344780093626 420.0,227.95344780093626 409.0,216.95344780093626"/>
<path d="M 420.0,217.0 L 510.0,227.4 L 600.0,237.9" stroke="#b33a1f" stroke-width="2.0" fill="none"/>
<polygon points="600,229.9 608,237.9 600,245.9 592,237.9" fill="#b33a1f"/>
<text class="tb" x="436.0" y="211.0" fill="#b33a1f">突破 3923（25%）</text>
<text class="ts" x="490" y="228.5" fill="#b33a1f">放量站稳 → 看 3912 9/11高点·反抽压力</text>
<polygon class="node-dn" points="420.0,348.7282159581298 431.0,359.7282159581298 420.0,370.7282159581298 409.0,359.7282159581298"/>
<path d="M 420.0,359.7 L 510.0,379.5 L 600.0,399.2" stroke="#1a7a3a" stroke-width="2.4" fill="none"/>
<polygon points="600,391.2 608,399.2 600,407.2 592,399.2" fill="#1a7a3a"/>
<text class="tb" x="436.0" y="373.7" fill="#1a7a3a">跌破 3852（45%）</text>
<text class="ts" x="490" y="385.4" fill="#1a7a3a">缩量跌破 → 看 3832 15F下轨</text>
<line x1="20" y1="237.9" x2="600" y2="237.9" stroke="#b33a1f" stroke-width="0.7" stroke-dasharray="2 3" opacity="0.75"/>
<text class="ts" x="610" y="240.9" fill="#b33a1f">RESIST 3912.32 9/11高点·反抽压力</text>
<line x1="20" y1="217.0" x2="600" y2="217.0" stroke="#b33a1f" stroke-width="0.7" stroke-dasharray="2 3" opacity="0.75"/>
<text class="ts" x="610" y="220.0" fill="#b33a1f">RESIST 3922.71 15F55·T&J关键压制</text>
<line x1="20" y1="359.7" x2="600" y2="359.7" stroke="#1a7a3a" stroke-width="0.7" stroke-dasharray="2 3" opacity="0.75"/>
<text class="ts" x="610" y="362.7" fill="#1a7a3a">SUPP 3852.03 前低·二次测试</text>
<line x1="20" y1="399.2" x2="600" y2="399.2" stroke="#1a7a3a" stroke-width="0.7" stroke-dasharray="2 3" opacity="0.75"/>
<g>
<rect x="615" y="385" width="270" height="150" rx="6" fill="#fffdf6" stroke="#a89e87" stroke-width="0.8"/>
<text x="627" y="403" class="tb" fill="#1f3a3a">盘面应对（v5 纪律）</text>
<text x="627" y="423" class="ts" fill="#6a6a5f">震荡：3852–3923 内不追涨杀跌，等变盘</text>
<text x="627" y="441" class="ts" fill="#b33a1f">突破：放量站稳 3923 → 追多，看 3912</text>
<text x="627" y="459" class="ts" fill="#1a7a3a">跌破：跌破 3852 → 减仓，看 3832</text>
<text x="627" y="477" class="ts" fill="#5a5a4f">信号：T&J：周五有效跌破 60F55 + 3852 无底背离 + 持续阴跌</text>
<text x="627" y="491" class="ts" fill="#5a5a4f">信号：日线 MACD 正式死叉（DIF 1.68<DEA 5.24）</text>
<text x="627" y="505" class="ts" fill="#5a5a4f">信号：BOLL 日线 81% 看空（开口向下趋势启动）</text>
<text x="627" y="523" class="ts" fill="#5a5a4f">概率：突破25% / 震荡30% / 跌破45%</text>
</g>
<g>
<rect x="20" y="545" width="580" height="26" rx="4" fill="#fffdf6" stroke="#a89e87" stroke-width="0.6"/>
<line x1="30" y1="558" x2="52" y2="558" stroke="#1f3a3a" stroke-width="2"/>
<text x="56" y="562" class="ts" fill="#1f3a3a">当日实况</text>
<line x1="130" y1="558" x2="152" y2="558" stroke="#8a8a80" stroke-width="2.5" stroke-dasharray="4 3"/>
<text x="156" y="562" class="ts" fill="#5a5a4f">震荡（常态）</text>
<line x1="250" y1="558" x2="272" y2="558" stroke="#b33a1f" stroke-width="3"/>
<text x="276" y="562" class="ts" fill="#b33a1f">突破（线宽=概率）</text>
<line x1="380" y1="558" x2="402" y2="558" stroke="#1a7a3a" stroke-width="3"/>
<text x="406" y="562" class="ts" fill="#1a7a3a">跌破（线宽=概率）</text>
<line x1="495" y1="558" x2="517" y2="558" stroke="#7a7a7a" stroke-width="1" stroke-dasharray="2 3"/>
<text x="521" y="562" class="ts" fill="#5a5a4f">关键位</text>
</g>
</svg>