<svg xmlns="http://www.w3.org/2000/svg" viewBox="-40 0 940 580" font-family="-apple-system,'PingFang SC',sans-serif">
<defs><style>
.grid{stroke:#d8d2c4;stroke-width:0.5;stroke-dasharray:2 3}
.axis{stroke:#3a4a4a;stroke-width:1;fill:none}
.label{fill:#3a4a4a;font-size:10px}
.actual{stroke:#1f3a3a;stroke-width:2.2;fill:none}
.node-up{fill:#fdf0ec;stroke:#b33a1f;stroke-width:2}
.node-dn{fill:#edf5ee;stroke:#1a7a3a;stroke-width:2}
.tt{font-size:11px;font-weight:700}
.tb{font-size:10px}
.ts{font-size:9px}
</style></defs>
<text x="430" y="18" text-anchor="middle" class="tt" fill="#1f3a3a" font-size="15">上证综指 2026-09-03 预判 · 震荡区间 + 变盘路径图（v5）</text>
<line class="grid" x1="20" y1="457.4" x2="600" y2="457.4"/>
<text class="label" x="14" y="460.4" text-anchor="end">3900</text>
<line class="grid" x1="20" y1="395.1" x2="600" y2="395.1"/>
<text class="label" x="14" y="398.1" text-anchor="end">3920</text>
<line class="grid" x1="20" y1="332.8" x2="600" y2="332.8"/>
<text class="label" x="14" y="335.8" text-anchor="end">3940</text>
<line class="grid" x1="20" y1="270.5" x2="600" y2="270.5"/>
<text class="label" x="14" y="273.5" text-anchor="end">3960</text>
<line class="grid" x1="20" y1="208.2" x2="600" y2="208.2"/>
<text class="label" x="14" y="211.2" text-anchor="end">3980</text>
<line class="grid" x1="20" y1="145.9" x2="600" y2="145.9"/>
<text class="label" x="14" y="148.9" text-anchor="end">4000</text>
<line class="grid" x1="20" y1="83.6" x2="600" y2="83.6"/>
<text class="label" x="14" y="86.6" text-anchor="end">4020</text>
<line class="axis" x1="20" y1="40" x2="20" y2="480"/>
<line class="grid" x1="240" y1="40" x2="240" y2="480" stroke="#a89e87" stroke-dasharray="3 4"/>
<text x="130" y="500" text-anchor="middle" class="label">当日实况</text>
<text x="420" y="500" text-anchor="middle" class="label">震荡区间 · 变盘路径</text>
<path class="actual" d="M 20.0,293.0 L 100.0,245.2 L 170.0,298.6 L 240.0,287.8"/>
<circle cx="20" cy="293.0" r="3" fill="#1f3a3a"/>
<text class="ts" x="18" y="307.0" text-anchor="end" fill="#1a5a3a">O 3952.79</text>
<circle cx="100" cy="245.2" r="3" fill="#b33a1f"/>
<text class="ts" x="104" y="241.2" fill="#b33a1f">H 3968.11</text>
<circle cx="170" cy="298.6" r="3" fill="#1a7a3a"/>
<text class="ts" x="174" y="312.6" fill="#1a7a3a">L 3950.98</text>
<circle cx="240" cy="287.8" r="3" fill="#1f3a3a"/>
<text class="ts" x="228" y="279.8" text-anchor="end" fill="#1f3a3a">C 3954.43</text>
<text class="tb" x="100" y="229.2" fill="#b33a1f">⚠ 假突破 3968 失败</text>
<text x="22" y="48.0" class="tb" fill="#b33a1f">▸ 当日关键信号</text>
<text x="24" y="63.0" class="ts" fill="#5a5a4f">· 早盘3968.11破60F中枢上沿未站稳</text>
<text x="24" y="78.0" class="ts" fill="#5a5a4f">· 15F带宽0.77%极度收口·变盘在即</text>
<text x="24" y="93.0" class="ts" fill="#5a5a4f">· 60F55(3931~3933)仍是全天分水岭</text>
<rect x="240" y="246.9" width="360" height="54.0" fill="#f3eddd" opacity="0.55"/>
<text class="ts" x="592" y="273.9" text-anchor="end" fill="#8a7a55">震荡带 3950–3968</text>
<circle cx="240" cy="287.8" r="4.5" fill="#2b2b2b"/>
<text class="tb" x="234" y="279.8" text-anchor="end" fill="#2b2b2b">现价 3954.43</text>
<path d="M 240.0,287.8 L 320.0,279.7 L 400.0,295.9 L 480.0,283.0 L 600.0,287.8" stroke="#8a8a80" stroke-width="2.0" fill="none" stroke-dasharray="4 3"/>
<text class="tb" x="330" y="293.7" fill="#6a6a5f">区间震荡（25%）</text>
<polygon class="node-up" points="420.0,235.85544386238064 431.0,246.85544386238064 420.0,257.85544386238064 409.0,246.85544386238064"/>
<path d="M 420.0,246.9 L 510.0,205.7 L 600.0,164.6" stroke="#b33a1f" stroke-width="2.2" fill="none"/>
<polygon points="600,156.6 608,164.6 600,172.6 592,164.6" fill="#b33a1f"/>
<text class="tb" x="436.0" y="240.9" fill="#b33a1f">突破 3968（35%）</text>
<text class="ts" x="490" y="201.6" fill="#b33a1f">放量站稳 → 看 3994 60F级别前高</text>
<polygon class="node-dn" points="420.0,289.8664873283303 431.0,300.8664873283303 420.0,311.8664873283303 409.0,300.8664873283303"/>
<path d="M 420.0,300.9 L 510.0,328.1 L 600.0,355.4" stroke="#1a7a3a" stroke-width="2.3" fill="none"/>
<polygon points="600,347.4 608,355.4 600,363.4 592,355.4" fill="#1a7a3a"/>
<text class="tb" x="436.0" y="314.9" fill="#1a7a3a">跌破 3950（40%）</text>
<text class="ts" x="490" y="334.9" fill="#1a7a3a">缩量跌破 → 看 3933 60F55·分水岭</text>
<line x1="20" y1="164.6" x2="600" y2="164.6" stroke="#b33a1f" stroke-width="0.7" stroke-dasharray="2 3" opacity="0.75"/>
<text class="ts" x="610" y="167.6" fill="#b33a1f">RESIST 3994.00 60F级别前高</text>
<line x1="20" y1="246.9" x2="600" y2="246.9" stroke="#b33a1f" stroke-width="0.7" stroke-dasharray="2 3" opacity="0.75"/>
<text class="ts" x="610" y="249.9" fill="#b33a1f">RESIST 3967.59 60F中枢上沿·反抽考验</text>
<line x1="20" y1="300.9" x2="600" y2="300.9" stroke="#1a7a3a" stroke-width="0.7" stroke-dasharray="2 3" opacity="0.75"/>
<text class="ts" x="610" y="303.9" fill="#1a7a3a">SUPP 3950.25 15F中轨·反抽生命线</text>
<line x1="20" y1="355.4" x2="600" y2="355.4" stroke="#1a7a3a" stroke-width="0.7" stroke-dasharray="2 3" opacity="0.75"/>
<g>
<rect x="615" y="385" width="270" height="150" rx="6" fill="#fffdf6" stroke="#a89e87" stroke-width="0.8"/>
<text x="627" y="403" class="tb" fill="#1f3a3a">盘面应对（v5 纪律）</text>
<text x="627" y="423" class="ts" fill="#6a6a5f">震荡：3950–3968 内不追涨杀跌，等变盘</text>
<text x="627" y="441" class="ts" fill="#b33a1f">突破：放量站稳 3968 → 追多，看 3994</text>
<text x="627" y="459" class="ts" fill="#1a7a3a">跌破：跌破 3950 → 减仓，看 3933</text>
<text x="627" y="477" class="ts" fill="#5a5a4f">信号：早盘3968.11破60F中枢上沿未站稳</text>
<text x="627" y="491" class="ts" fill="#5a5a4f">信号：15F带宽0.77%极度收口·变盘在即</text>
<text x="627" y="505" class="ts" fill="#5a5a4f">信号：60F55(3931~3933)仍是全天分水岭</text>
<text x="627" y="523" class="ts" fill="#5a5a4f">概率：突破35% / 震荡25% / 跌破40%</text>
</g>
<g>
<rect x="20" y="545" width="580" height="26" rx="4" fill="#fffdf6" stroke="#a89e87" stroke-width="0.6"/>
<line x1="30" y1="558" x2="52" y2="558" stroke="#1f3a3a" stroke-width="2"/>
<text x="56" y="562" class="ts" fill="#1f3a3a">当日实况</text>
<line x1="130" y1="558" x2="152" y2="558" stroke="#8a8a80" stroke-width="2.5" stroke-dasharray="4 3"/>
<text x="156" y="562" class="ts" fill="#5a5a4f">震荡（常态）</text>
<line x1="250" y1="558" x2="272" y2="558" stroke="#b33a1f" stroke-width="3"/>
<text x="276" y="562" class="ts" fill="#b33a1f">突破（线宽=概率）</text>
<line x1="380" y1="558" x2="402" y2="558" stroke="#1a7a3a" stroke-width="3"/>
<text x="406" y="562" class="ts" fill="#1a7a3a">跌破（线宽=概率）</text>
<line x1="495" y1="558" x2="517" y2="558" stroke="#7a7a7a" stroke-width="1" stroke-dasharray="2 3"/>
<text x="521" y="562" class="ts" fill="#5a5a4f">关键位</text>
</g>
</svg>